<svg width="200" height="74" viewBox="0 0 200 74" fill="none" xmlns="http://www.w3.org/2000/svg">
<rect x="24.4898" width="8.16327" height="73.4694" fill="#44A173"/>
<rect x="65.3061" y="32.6531" width="8.16327" height="40.8163" fill="#44A173"/>
<rect x="40.8163" y="48.9796" width="8.16327" height="24.4898" fill="#44A173"/>
<rect x="40.8163" y="65.3062" width="32.6531" height="8.16327" fill="#44A173"/>
<rect x="40.8163" y="48.9796" width="32.6531" height="8.16327" fill="#44A173"/>
<rect y="32.6531" width="73.4694" height="8.16327" fill="#BCFFE3"/>
<rect x="106.122" y="8.16327" width="8.16327" height="65.3061" fill="#44A173"/>
<rect x="81.6327" y="44.8979" width="8.16327" height="28.5714" fill="#44A173"/>
<rect x="81.6327" y="65.3062" width="32.6531" height="8.16327" fill="#44A173"/>
<rect x="81.6327" y="40.8163" width="32.6531" height="8.16327" fill="#44A173"/>
<rect x="146.939" y="40.8163" width="8.16327" height="32.6531" fill="#44A173"/>
<rect x="122.449" y="40.8163" width="8.16327" height="32.6531" fill="#44A173"/>
<rect x="122.449" y="65.3062" width="32.6531" height="8.16327" fill="#44A173"/>
<rect x="122.449" y="40.8163" width="32.6531" height="8.16327" fill="#44A173"/>
<rect x="163.265" y="40.8163" width="8.16327" height="32.6531" fill="#44A173"/>
<rect x="163.265" y="65.3062" width="36.7347" height="8.16327" fill="#BCFFE3"/>
<rect x="163.265" y="40.8163" width="24.4898" height="8.16327" fill="#44A173"/>
</svg>
